<svg width="32" height="32" viewBox="0 0 32 32" fill="none" xmlns="http://www.w3.org/2000/svg">
<mask id="mask0_427_4406" style="mask-type:alpha" maskUnits="userSpaceOnUse" x="0" y="0" width="32" height="32">
<rect width="32" height="32" fill="#D9D9D9"/>
</mask>
<g mask="url(#mask0_427_4406)">
</g>
<g clip-path="url(#clip0_427_4406)">
<path d="M16 32C24.8366 32 32 24.8366 32 16C32 7.16344 24.8366 0 16 0C7.16344 0 0 7.16344 0 16C0 24.8366 7.16344 32 16 32Z" fill="#56AF31"/>
<path d="M12.7698 25.21C20.5798 25.21 24.8598 18.74 24.8598 13.12C24.8598 12.94 24.8598 12.75 24.8498 12.57C25.6798 11.97 26.3998 11.22 26.9698 10.37C26.2098 10.71 25.3898 10.94 24.5298 11.04C25.4098 10.51 26.0798 9.68 26.3998 8.69C25.5798 9.18 24.6698 9.53 23.6998 9.72001C22.9198 8.89001 21.8198 8.38 20.5998 8.38C18.2498 8.38 16.3498 10.28 16.3498 12.63C16.3498 12.96 16.3898 13.29 16.4598 13.6C12.9298 13.42 9.79977 11.73 7.69977 9.16C7.32977 9.79 7.11977 10.52 7.11977 11.3C7.11977 12.77 7.86977 14.08 9.00977 14.84C8.30977 14.82 7.65977 14.63 7.08977 14.31C7.08977 14.33 7.08977 14.35 7.08977 14.36C7.08977 16.42 8.54977 18.14 10.4998 18.53C10.1398 18.63 9.76977 18.68 9.37977 18.68C9.10977 18.68 8.83977 18.65 8.57977 18.6C9.11977 20.29 10.6898 21.52 12.5498 21.55C11.0998 22.69 9.25977 23.37 7.26977 23.37C6.92977 23.37 6.58977 23.35 6.25977 23.31C8.13977 24.51 10.3698 25.22 12.7698 25.22" fill="white"/>
<g clip-path="url(#clip1_427_4406)">
<path d="M16 32C24.8366 32 32 24.8366 32 16C32 7.16344 24.8366 0 16 0C7.16344 0 0 7.16344 0 16C0 24.8366 7.16344 32 16 32Z" fill="#56AF31"/>
<path d="M16.0002 7.74004C18.6902 7.74004 19.0102 7.75004 20.0702 7.80004C21.0502 7.84004 21.5902 8.01004 21.9402 8.15004C22.4102 8.33004 22.7502 8.55004 23.1002 8.90004C23.4502 9.25004 23.6702 9.59004 23.8502 10.06C23.9902 10.41 24.1502 10.95 24.2002 11.93C24.2502 12.99 24.2602 13.31 24.2602 16C24.2602 18.69 24.2502 19.01 24.2002 20.07C24.1602 21.05 23.9902 21.59 23.8502 21.94C23.6702 22.41 23.4502 22.75 23.1002 23.1C22.7502 23.45 22.4102 23.67 21.9402 23.85C21.5902 23.99 21.0502 24.15 20.0702 24.2C19.0102 24.25 18.6902 24.26 16.0002 24.26C13.3102 24.26 12.9902 24.25 11.9302 24.2C10.9502 24.16 10.4102 23.99 10.0602 23.85C9.59018 23.67 9.25018 23.45 8.90018 23.1C8.55018 22.75 8.33018 22.41 8.15018 21.94C8.01018 21.59 7.85018 21.05 7.80018 20.07C7.75018 19.01 7.74018 18.69 7.74018 16C7.74018 13.31 7.75018 12.99 7.80018 11.93C7.84018 10.95 8.01018 10.41 8.15018 10.06C8.33018 9.59004 8.55018 9.25004 8.90018 8.90004C9.25018 8.55004 9.59018 8.33004 10.0602 8.15004C10.4102 8.01004 10.9502 7.85004 11.9302 7.80004C12.9902 7.75004 13.3102 7.74004 16.0002 7.74004ZM16.0002 5.92004C13.2602 5.92004 12.9202 5.93004 11.8502 5.98004C10.7802 6.03004 10.0502 6.20004 9.40018 6.45004C8.74018 6.71004 8.18018 7.05004 7.62018 7.61004C7.06018 8.17004 6.72018 8.73004 6.46018 9.39004C6.21018 10.03 6.04018 10.76 5.99018 11.84C5.94018 12.91 5.93018 13.26 5.93018 15.99C5.93018 18.72 5.94018 19.07 5.99018 20.14C6.04018 21.21 6.21018 21.94 6.46018 22.59C6.72018 23.25 7.06018 23.81 7.62018 24.37C8.18018 24.93 8.74018 25.27 9.40018 25.53C10.0402 25.78 10.7702 25.95 11.8502 26C12.9202 26.05 13.2702 26.06 16.0002 26.06C18.7302 26.06 19.0802 26.05 20.1502 26C21.2202 25.95 21.9502 25.78 22.6002 25.53C23.2602 25.27 23.8202 24.93 24.3802 24.37C24.9402 23.81 25.2802 23.25 25.5402 22.59C25.7902 21.95 25.9602 21.22 26.0102 20.14C26.0602 19.07 26.0702 18.72 26.0702 15.99C26.0702 13.26 26.0602 12.91 26.0102 11.84C25.9602 10.77 25.7902 10.04 25.5402 9.39004C25.2802 8.73004 24.9402 8.17004 24.3802 7.61004C23.8202 7.05004 23.2602 6.71004 22.6002 6.45004C21.9602 6.20004 21.2302 6.03004 20.1502 5.98004C19.0802 5.93004 18.7302 5.92004 16.0002 5.92004Z" fill="white"/>
<path d="M16.0001 10.83C13.1401 10.83 10.8301 13.15 10.8301 16C10.8301 18.85 13.1501 21.17 16.0001 21.17C18.8501 21.17 21.1701 18.85 21.1701 16C21.1701 13.15 18.8501 10.83 16.0001 10.83ZM16.0001 19.36C14.1501 19.36 12.6401 17.86 12.6401 16C12.6401 14.14 14.1401 12.64 16.0001 12.64C17.8601 12.64 19.3601 14.14 19.3601 16C19.3601 17.86 17.8601 19.36 16.0001 19.36Z" fill="white"/>
<path d="M21.3799 11.83C22.0482 11.83 22.5899 11.2883 22.5899 10.62C22.5899 9.95177 22.0482 9.41003 21.3799 9.41003C20.7117 9.41003 20.1699 9.95177 20.1699 10.62C20.1699 11.2883 20.7117 11.83 21.3799 11.83Z" fill="white"/>
</g>
</g>
<defs>
<clipPath id="clip0_427_4406">
<rect width="32" height="32" fill="white"/>
</clipPath>
<clipPath id="clip1_427_4406">
<rect width="32" height="32" fill="white"/>
</clipPath>
</defs>
</svg>
