<svg width="32" height="32" viewBox="0 0 32 32" fill="none" xmlns="http://www.w3.org/2000/svg">
<mask id="mask0_427_4094" style="mask-type:alpha" maskUnits="userSpaceOnUse" x="0" y="0" width="32" height="32">
<rect width="32" height="32" fill="#D9D9D9"/>
</mask>
<g mask="url(#mask0_427_4094)">
</g>
<g clip-path="url(#clip0_427_4094)">
<path d="M16 32C24.8366 32 32 24.8366 32 16C32 7.16344 24.8366 0 16 0C7.16344 0 0 7.16344 0 16C0 24.8366 7.16344 32 16 32Z" fill="#56AF31"/>
<path d="M17.2402 13.82C17.5002 13.52 17.7202 13.22 17.9902 12.97C18.8202 12.19 19.8002 11.79 20.9502 11.8C21.5802 11.8 22.2002 11.85 22.8102 12.03C24.2002 12.43 25.0102 13.39 25.3902 14.74C25.6802 15.76 25.7302 16.8 25.7302 17.85C25.7302 20.06 25.7302 22.27 25.7302 24.48C25.7302 24.69 25.6702 24.74 25.4702 24.74C24.3302 24.74 23.1902 24.74 22.0502 24.74C21.8502 24.74 21.8102 24.68 21.8102 24.49C21.8102 22.39 21.8102 20.28 21.8102 18.18C21.8102 17.65 21.7702 17.13 21.6302 16.61C21.3602 15.67 20.6802 15.19 19.6902 15.24C18.3402 15.31 17.6402 15.98 17.4702 17.35C17.4302 17.68 17.4102 18.01 17.4102 18.34C17.4102 20.39 17.4102 22.43 17.4102 24.48C17.4102 24.68 17.3602 24.74 17.1502 24.74C16.0002 24.73 14.8602 24.74 13.7102 24.74C13.5302 24.74 13.4702 24.69 13.4702 24.51C13.4702 20.46 13.4702 16.41 13.4702 12.36C13.4702 12.16 13.5402 12.11 13.7202 12.11C14.8102 12.11 15.9002 12.11 16.9902 12.11C17.1902 12.11 17.2402 12.17 17.2402 12.36C17.2302 12.84 17.2402 13.33 17.2402 13.81V13.82Z" fill="#FDFDFD"/>
<path d="M10.9998 18.45C10.9998 20.45 10.9998 22.46 10.9998 24.46C10.9998 24.68 10.9498 24.75 10.7198 24.75C9.57982 24.74 8.43982 24.75 7.30982 24.75C7.12982 24.75 7.06982 24.71 7.06982 24.52C7.06982 20.46 7.06982 16.41 7.06982 12.35C7.06982 12.18 7.10982 12.12 7.28982 12.12C8.43982 12.12 9.59982 12.12 10.7498 12.12C10.9698 12.12 10.9998 12.2 10.9998 12.39C10.9998 14.41 10.9998 16.43 10.9998 18.45Z" fill="#FDFDFD"/>
<path d="M11.31 8.08996C11.31 9.34996 10.29 10.37 9.04002 10.37C7.80002 10.37 6.77002 9.33996 6.77002 8.10996C6.77002 6.85996 7.79002 5.82996 9.05002 5.82996C10.29 5.82996 11.32 6.84996 11.32 8.08996H11.31Z" fill="#FDFDFD"/>
</g>
<defs>
<clipPath id="clip0_427_4094">
<rect width="32" height="32" fill="white"/>
</clipPath>
</defs>
</svg>
