<svg width="32" height="32" viewBox="0 0 32 32" fill="none" xmlns="http://www.w3.org/2000/svg">
<mask id="mask0_427_4092" style="mask-type:alpha" maskUnits="userSpaceOnUse" x="0" y="0" width="32" height="32">
<rect width="32" height="32" fill="#D9D9D9"/>
</mask>
<g mask="url(#mask0_427_4092)">
<path d="M16 32C24.8365 32 32 24.8366 32 16C32 7.16345 24.8365 0 16 0C7.16343 0 0 7.16345 0 16C0 24.8366 7.16343 32 16 32Z" fill="#56AF31"/>
<path d="M14.8 22H10C8.34 22 6.925 21.415 5.755 20.245C4.585 19.075 4 17.66 4 16C4 14.34 4.585 12.925 5.755 11.755C6.925 10.585 8.34 10 10 10H14.8V12.4H10C9 12.4 8.15 12.75 7.45 13.45C6.75 14.15 6.4 15 6.4 16C6.4 17 6.75 17.85 7.45 18.55C8.15 19.25 9 19.6 10 19.6H14.8V22ZM11.2 17.2V14.8H20.8V17.2H11.2ZM17.2 22V19.6H22C23 19.6 23.85 19.25 24.55 18.55C25.25 17.85 25.6 17 25.6 16C25.6 15 25.25 14.15 24.55 13.45C23.85 12.75 23 12.4 22 12.4H17.2V10H22C23.66 10 25.075 10.585 26.245 11.755C27.415 12.925 28 14.34 28 16C28 17.66 27.415 19.075 26.245 20.245C25.075 21.415 23.66 22 22 22H17.2Z" fill="white"/>
</g>
</svg>
