<svg width="230" height="224" viewBox="0 0 230 224" fill="none" xmlns="http://www.w3.org/2000/svg">
<path d="M195.515 7.10034H191.279C172.81 7.10034 157.484 22.4259 157.484 41.2994V42.9453H152.83V7.10034H119.036V38.1561C119.036 57.8526 135.049 74.001 154.746 74.001H155.434C175.265 74.001 191.279 57.8526 191.279 38.1561H196.068V78.6554H110.955C92.3645 78.6554 77.2953 93.7245 77.2953 112.315V187.229H72.5061V156.578C72.5061 136.598 56.3576 120.463 36.3777 120.463C16.3979 120.463 0.262939 136.612 0.262939 156.578V223.074H34.0574V151.519H38.7116V186.959C38.7116 206.939 54.8601 223.074 74.8399 223.074C94.8198 223.074 110.955 206.926 110.955 186.959V109.725H198.793C215.899 109.725 229.714 95.91 229.714 78.8037V41.178C229.714 22.4394 214.388 7.11385 195.501 7.11385L195.515 7.10034Z" fill="#FFFFFF"/>
<path d="M34.0574 73.8392H77.5651C79.7911 73.8392 91.6224 73.6369 101.187 64.0989C102.509 62.7768 110.955 54.0753 110.955 40.598C110.955 28.2135 103.818 19.8357 101.187 16.8408C87.9394 1.75809 67.1097 0.975632 51.9731 0.40902C42.2327 0.044769 26.8533 0.719311 8.64073 7.07346C1.80092 10.4731 0.262939 15.7615 0.262939 23.6536V38.1292H38.2665H76.216H77.2952V42.77H31.3187C14.2124 42.77 0.262939 56.733 0.262939 73.8258V109.671H34.0574V73.8258V73.8392ZM16.8701 28.4833C12.9308 28.4833 9.73348 25.259 9.73348 21.2657C9.73348 17.2725 12.9308 14.0077 16.8701 14.0077C20.8094 14.0077 23.9932 17.259 23.9932 21.2657C23.9932 25.2725 20.7824 28.4833 16.8701 28.4833Z" fill="#FFFFFF"/>
<path d="M177.343 153.017V133.86C177.343 125.765 183.94 119.168 192.034 119.168H215.022C223.117 119.168 229.714 125.779 229.714 133.86V153.017C229.714 161.111 221.822 167.708 213.727 167.708H192.034C183.94 167.708 177.343 161.098 177.343 153.017ZM213.727 153.017V133.86H193.329V153.017H213.727Z" fill="#FFFFFF"/>
<path d="M120.29 223.034V207.168C120.29 198.494 128.061 191.438 137.572 191.438C145.855 191.438 152.79 196.74 154.462 203.863H156.661V189.172H120.277V174.48H157.957C166.051 174.48 172.648 181.091 172.648 189.172V191.438C172.648 199.533 166.051 206.13 157.957 206.13H136.398V208.329H172.648V223.02H120.277L120.29 223.034Z" fill="#FFFFFF"/>
<path d="M177.343 208.356H213.768V206.157H202.881C198.861 206.157 195.555 202.851 195.555 198.764C195.555 194.676 198.861 191.438 202.881 191.438H213.768V189.172H177.343V174.453H229.714V186.379C229.714 192.666 224.21 197.657 217.91 197.657H211.488V199.856H218.166C224.52 199.856 229.7 205.037 229.7 211.458C229.7 217.88 224.52 223.061 218.166 223.061H177.329V208.342L177.343 208.356Z" fill="#FFFFFF"/>
<path d="M120.304 167.708V151.843C120.304 143.168 128.074 136.113 137.585 136.113C145.869 136.113 152.803 141.414 154.476 148.538H156.675V133.846H120.29V119.155H157.97C166.064 119.155 172.661 125.765 172.661 133.846V136.113C172.661 144.207 166.064 150.804 157.97 150.804H136.412V153.003H172.661V167.694H120.29L120.304 167.708Z" fill="#FFFFFF"/>
</svg>
