<svg width="32" height="32" viewBox="0 0 32 32" fill="none" xmlns="http://www.w3.org/2000/svg">
<mask id="mask0_427_4403" style="mask-type:alpha" maskUnits="userSpaceOnUse" x="0" y="0" width="32" height="32">
<rect width="32" height="32" fill="#D9D9D9"/>
</mask>
<g mask="url(#mask0_427_4403)">
</g>
<g clip-path="url(#clip0_427_4403)">
<path d="M16 32C24.8366 32 32 24.8366 32 16C32 7.16344 24.8366 0 16 0C7.16344 0 0 7.16344 0 16C0 24.8366 7.16344 32 16 32Z" fill="#56AF31"/>
<path d="M12.7698 25.21C20.5798 25.21 24.8598 18.74 24.8598 13.12C24.8598 12.94 24.8598 12.75 24.8498 12.57C25.6798 11.97 26.3998 11.22 26.9698 10.37C26.2098 10.71 25.3898 10.94 24.5298 11.04C25.4098 10.51 26.0798 9.68 26.3998 8.69C25.5798 9.18 24.6698 9.53 23.6998 9.72001C22.9198 8.89001 21.8198 8.38 20.5998 8.38C18.2498 8.38 16.3498 10.28 16.3498 12.63C16.3498 12.96 16.3898 13.29 16.4598 13.6C12.9298 13.42 9.79977 11.73 7.69977 9.16C7.32977 9.79 7.11977 10.52 7.11977 11.3C7.11977 12.77 7.86977 14.08 9.00977 14.84C8.30977 14.82 7.65977 14.63 7.08977 14.31C7.08977 14.33 7.08977 14.35 7.08977 14.36C7.08977 16.42 8.54977 18.14 10.4998 18.53C10.1398 18.63 9.76977 18.68 9.37977 18.68C9.10977 18.68 8.83977 18.65 8.57977 18.6C9.11977 20.29 10.6898 21.52 12.5498 21.55C11.0998 22.69 9.25977 23.37 7.26977 23.37C6.92977 23.37 6.58977 23.35 6.25977 23.31C8.13977 24.51 10.3698 25.22 12.7698 25.22" fill="white"/>
</g>
<defs>
<clipPath id="clip0_427_4403">
<rect width="32" height="32" fill="white"/>
</clipPath>
</defs>
</svg>
