<svg width="677" height="230" viewBox="0 0 677 230" fill="none" xmlns="http://www.w3.org/2000/svg">
<g clip-path="url(#clip0_394_1745)">
<path d="M226.497 36.9988V6.56665H335.189V37.0092H297.438V107.134H264.248V36.9988H226.497Z" fill="white"/>
<path d="M339.76 6.62927H372.909V41.5818H377.47C377.47 22.2995 393.171 6.62927 412.627 6.62927H413.296C432.616 6.62927 448.453 22.2995 448.453 41.5818V107.071H377.47V76.6701H415.315V37.0301H410.618V41.5818C410.618 58.4631 396.936 71.9826 380.158 71.9826H372.909V107.071H339.76V6.62927Z" fill="white"/>
<path d="M453.014 76.691V36.9988C453.014 20.2428 466.717 6.55621 483.516 6.55621H531.205C548.004 6.55621 561.707 20.2324 561.707 36.9988V76.691C561.707 93.447 545.315 107.134 528.516 107.134H483.506C466.706 107.134 453.003 93.4574 453.003 76.691H453.014ZM528.516 76.691V36.9988H486.194V76.691H528.516Z" fill="white"/>
<path d="M601.738 6.56665C621.351 6.56665 637.209 22.383 637.209 41.9681V72.0035H641.916V6.56665H674.96V71.7425C674.96 91.3172 659.113 107.144 639.489 107.144C619.866 107.144 604.019 91.3277 604.019 71.7425V37.0092H599.447V107.134H566.257V41.9577C566.257 22.383 582.104 6.55621 601.728 6.55621L601.738 6.56665Z" fill="white"/>
<path d="M99.1007 16.1819C86.0986 1.39912 65.6487 0.637011 50.7847 0.0732595C41.2135 -0.281695 26.1089 0.386454 8.23224 6.6086C1.51674 9.9389 0 15.1171 0 22.853V37.0512H37.3118H74.5818H75.6383V41.6029H30.5022C13.703 41.6029 0 55.2791 0 72.035V107.165H33.1905V72.035H75.9103C78.0965 72.035 89.7178 71.8367 99.1007 62.4826C100.408 61.1881 108.693 52.6483 108.693 39.4523C108.693 27.3108 101.684 19.1051 99.1007 16.1715V16.1819ZM16.3076 27.5822C12.4373 27.5822 9.30965 24.419 9.30965 20.504C9.30965 16.5891 12.4477 13.384 16.3076 13.384C20.1674 13.384 23.3055 16.5786 23.3055 20.504C23.3055 24.4294 20.157 27.5822 16.3076 27.5822Z" fill="white"/>
<path d="M113.253 192.97V153.278C113.253 136.511 126.956 122.835 143.756 122.835H191.455C208.254 122.835 221.957 136.511 221.957 153.278V192.97C221.957 209.726 205.565 223.402 188.777 223.402H143.766C126.967 223.402 113.264 209.726 113.264 192.97H113.253ZM188.766 192.97V153.278H146.444V192.97H188.766Z" fill="white"/>
<path d="M226.507 188.262C226.507 171.506 240.21 157.829 257.009 157.829H297.449V153.267H226.507V122.825H302.417C320.555 122.825 335.2 137.44 335.2 155.543C335.2 173.646 320.555 188.262 302.417 188.262H297.449V192.959H335.2V223.392H294.76C277.972 223.392 264.258 209.715 264.258 192.959V188.262H259.687V223.392H226.497V188.262H226.507Z" fill="white"/>
<path d="M339.76 153.299V122.856H448.453V153.299H410.702V223.423H377.512V153.299H339.76Z" fill="white"/>
<path d="M523.956 192.928V188.241H528.924C547.062 188.241 561.707 173.625 561.707 155.522C561.707 137.42 547.062 122.804 528.924 122.804H483.516C466.717 122.804 453.014 136.344 453.014 153.246V192.939C453.014 204.621 459.677 214.789 469.405 219.884C482.062 228.831 498.485 229.468 510.974 229.916C520.535 230.261 535.619 229.593 553.474 223.371C553.485 223.371 553.506 223.371 553.516 223.36C559.918 220.176 561.571 215.29 561.696 208.139V192.939H523.945L523.956 192.928ZM486.068 153.246H528.663V157.809H521.267C504.479 157.809 490.765 171.485 490.765 188.241V192.939H486.058V153.246H486.068ZM545.431 202.387C549.301 202.387 552.439 205.539 552.439 209.454C552.439 213.38 549.311 216.574 545.441 216.574C541.592 216.574 538.433 213.39 538.433 209.465C538.433 205.55 541.571 202.387 545.431 202.387Z" fill="white"/>
<path d="M188.337 6.56665H184.174C166.036 6.56665 150.984 21.5896 150.984 40.089V41.7071H146.413V6.56665H113.222V37.0092C113.222 56.3125 128.944 72.1393 148.285 72.1393H148.954C168.431 72.1393 184.153 56.3125 184.153 37.0092H188.86V76.7015H108.672C90.4187 76.7015 75.6279 91.4738 75.6279 109.681V122.825V188.262H70.9207V158.226C70.9207 138.651 55.0734 122.825 35.4499 122.825C15.8264 122.825 0 138.641 0 158.216V223.392H33.1905V153.267H37.7616V188.001C37.7616 207.575 53.609 223.402 73.2325 223.402C92.8559 223.402 108.703 207.586 108.703 188.001V122.825V107.134H191.58C208.369 107.134 221.946 93.5931 221.946 76.8267V39.9532C221.946 21.5896 206.894 6.56665 188.358 6.56665H188.337Z" fill="white"/>
<path d="M626.184 157.777V139.226C626.184 131.385 632.586 124.996 640.441 124.996H662.743C670.598 124.996 677 131.396 677 139.226V157.777C677 165.607 669.333 172.007 661.487 172.007H640.441C632.586 172.007 626.184 165.607 626.184 157.777ZM661.487 157.777V139.226H641.697V157.777H661.487Z" fill="#1C1B1F"/>
<path d="M570.839 225.584V210.227C570.839 201.833 578.38 194.995 587.606 194.995C595.65 194.995 602.366 200.132 603.998 207.032H606.132V192.803H570.828V178.573H607.387C615.242 178.573 621.644 184.973 621.644 192.803V194.995C621.644 202.836 615.242 209.225 607.387 209.225H586.466V211.354H621.644V225.584H570.828H570.839Z" fill="#1C1B1F"/>
<path d="M626.184 211.365H661.529V209.225H650.964C647.063 209.225 643.862 206.02 643.862 202.073C643.862 198.127 647.073 194.985 650.964 194.985H661.529V192.792H626.184V178.542H677V190.089C677 196.175 671.655 201.009 665.556 201.009H659.333V203.138H665.807C671.969 203.138 677 208.16 677 214.372C677 220.583 671.969 225.605 665.807 225.605H626.184V211.354V211.365Z" fill="#1C1B1F"/>
<path d="M570.839 172.007V156.65C570.839 148.256 578.38 141.418 587.606 141.418C595.65 141.418 602.366 146.554 603.998 153.455H606.132V139.226H570.828V124.996H607.387C615.242 124.996 621.644 131.396 621.644 139.226V141.418C621.644 149.258 615.242 155.648 607.387 155.648H586.466V157.777H621.644V172.007H570.828H570.839Z" fill="#1C1B1F"/>
</g>
<defs>
<clipPath id="clip0_394_1745">
<rect width="677" height="230" fill="white"/>
</clipPath>
</defs>
</svg>
