<svg width="281" height="80" viewBox="0 0 281 80" fill="none" xmlns="http://www.w3.org/2000/svg">
<path d="M10.944 66.536C13.632 55.016 15.936 41.864 18.912 30.44C19.776 27.176 22.368 19.304 23.136 15.944C23.712 14.024 24 12.68 24 11.816C24 10.088 22.848 9.608 20.64 9.128C17.376 9.128 12.48 9.128 12.48 10.76V10.856C12.48 17.672 4.416 48.008 0.096 66.728C0 67.208 0 67.592 0 68.072C0 72.584 4.512 76.904 9.984 76.904C13.92 76.904 18.72 74.312 22.752 67.88C32.928 51.656 40.32 31.976 50.4 14.696C51.072 13.544 51.36 12.584 51.36 11.816C51.36 9.128 47.712 9.032 45.696 9.032H45.408C40.608 10.28 38.496 10.856 37.728 14.024C30.336 31.208 19.968 50.984 10.944 66.536ZM60.6683 9.608C58.8443 9.608 56.3483 12.776 56.3483 14.792C56.3483 15.656 56.8282 16.328 58.0763 16.328H61.5323C60.7643 17.288 59.3243 18.056 59.3243 19.688L47.5163 51.848H42.8122C40.3162 51.848 39.3562 53.096 39.3562 54.44C39.3562 56.264 40.9883 58.472 42.5242 58.472H45.0203C44.2523 60.488 43.9642 62.6 43.9642 64.328C43.9642 71.72 49.7243 75.656 53.0843 76.424L79.7723 77.672H79.9643C82.0763 77.672 83.4203 76.04 83.4203 74.312C83.4203 72.584 82.6523 70.952 79.4843 70.568L54.9083 70.28C52.7963 70.28 52.0283 69.128 52.0283 67.688C52.0283 65.864 52.9883 63.272 54.7163 58.568H72.9563C74.1083 58.568 77.8523 55.496 77.8523 53.576C77.8523 52.616 76.9883 51.944 74.5883 51.944H57.3083L69.5963 20.456C70.2683 19.304 70.3643 18.248 70.3643 17.384V16.424L89.3723 16.328C92.1562 16.328 93.3083 15.464 93.3083 14.504C93.3083 12.776 89.9483 10.376 85.3403 10.28L60.6683 9.608ZM88.6732 73.064C88.4812 73.352 88.4812 73.832 88.4812 74.12C88.4812 76.328 93.1852 78.248 97.8893 78.248C101.153 78.248 101.633 77 102.305 74.216C103.073 55.976 113.057 30.056 118.817 17.576C120.161 16.712 120.737 16.424 121.505 16.424C122.753 16.424 123.041 17.576 123.041 19.4C123.041 24.872 118.529 37.064 116.801 47.816C116.513 49.448 116.417 50.888 116.417 53.096V53.288C116.417 59.432 120.257 64.04 135.905 64.904C136.673 64.904 137.537 64.616 137.633 64.328C137.825 63.464 138.401 61.16 138.689 59.336C142.049 46.184 148.961 31.112 155.681 18.728C156.065 17.576 157.601 16.616 158.849 16.616C160.001 16.616 161.345 17.48 161.345 19.208C161.345 19.592 161.249 20.072 161.153 20.552C157.601 35.624 146.561 59.624 143.489 75.752V76.136C143.489 77.768 145.793 78.344 149.057 79.016C150.593 79.4 152.225 79.688 153.473 79.688C155.297 79.688 156.353 79.208 156.833 77.672C157.697 74.408 156.737 73.544 158.369 69.416C163.361 53.672 170.561 33.704 171.329 18.632V18.44C171.329 14.6 164.801 10.472 160.961 9.704C159.713 9.512 157.985 9.41599 156.641 9.41599C152.801 9.41599 148.865 10.376 147.041 13.544C142.145 21.8 132.545 39.656 129.185 51.272C128.897 49.832 128.705 48.296 128.705 46.76C128.705 37.832 132.641 27.656 132.641 20.36C132.641 17.288 131.969 14.696 130.049 12.968C126.401 9.8 123.041 8.648 120.065 8.648C116.993 8.648 114.305 9.8 111.809 10.664C102.113 31.496 93.1852 54.824 88.6732 73.064ZM195.183 59.912C191.823 59.912 190.575 60.68 190.575 61.832C190.575 63.368 192.879 65.384 195.183 66.344C195.759 71.144 197.775 76.424 199.983 76.424C201.039 76.424 202.191 75.176 203.247 72.008L205.551 66.344L220.911 65.48L220.047 68.744C219.951 69.032 219.855 69.416 219.855 69.8C219.855 73.16 223.983 78.248 226.479 78.248C227.247 78.248 227.823 77.768 228.111 76.808L245.871 24.584C245.967 24.392 245.967 24.104 245.967 23.816C245.967 20.264 242.031 10.088 235.407 10.088H211.215C210.063 10.088 209.487 11.72 209.487 13.352C209.487 14.984 210.063 16.52 211.215 16.52H212.943C212.943 16.52 212.175 16.52 212.175 17.288L196.047 59.048L195.183 59.912ZM208.143 59.048L221.679 19.784C221.679 18.152 221.679 17.288 220.911 16.52L232.911 15.752C236.271 15.752 237.999 19.112 237.999 21.608C237.999 22.088 237.903 22.568 237.807 22.952L223.311 59.048H208.143ZM267.179 16.808C271.403 14.216 275.339 11.336 278.699 8.55199C280.331 7.20799 280.619 7.592 280.619 5.288C280.619 4.808 280.619 4.328 280.523 3.944C279.947 1.544 278.603 0.199999 277.163 0.199999C276.587 0.199999 275.435 0.583994 274.667 1.256C269.579 5.47999 266.891 8.07199 262.667 11.528C261.227 12.584 261.131 13.736 261.131 14.6C261.131 15.752 261.803 17.864 264.107 17.864C265.163 17.864 266.123 17.768 267.179 16.808ZM257.003 24.776C250.379 37.928 244.523 53.576 243.755 68.36C243.659 69.32 243.562 70.184 243.562 70.952C243.562 75.464 245.195 77.288 247.211 77.288C250.283 77.288 254.219 73.352 255.179 69.128C256.907 55.208 261.419 41.192 265.643 26.408C266.123 25.064 266.315 23.912 266.315 23.048C266.315 21.224 264.971 20.552 263.723 20.552C261.419 20.552 257.867 22.856 257.003 24.776Z" fill="url(#paint0_linear_394_1769)"/>
<defs>
<linearGradient id="paint0_linear_394_1769" x1="136" y1="6.00722" x2="136" y2="59.6833" gradientUnits="userSpaceOnUse">
<stop stop-color="#282828"/>
<stop offset="1" stop-color="#2C2C2C"/>
</linearGradient>
</defs>
</svg>
