<svg width="117" height="34" viewBox="0 0 117 34" fill="none" xmlns="http://www.w3.org/2000/svg">
<path d="M4.56 27.64C5.68 22.84 6.64 17.36 7.88 12.6C8.24 11.24 9.32 7.96 9.64 6.56C9.88 5.76 10 5.2 10 4.84C10 4.12 9.52 3.92 8.6 3.72C7.24 3.72 5.2 3.72 5.2 4.4V4.44C5.2 7.28 1.84 19.92 0.04 27.72C0 27.92 0 28.08 0 28.28C0 30.16 1.88 31.96 4.16 31.96C5.8 31.96 7.8 30.88 9.48 28.2C13.72 21.44 16.8 13.24 21 6.04C21.28 5.56 21.4 5.16 21.4 4.84C21.4 3.72 19.88 3.68 19.04 3.68H18.92C16.92 4.2 16.04 4.44 15.72 5.76C12.64 12.92 8.32 21.16 4.56 27.64ZM25.2784 3.92C24.5184 3.92 23.4784 5.24 23.4784 6.08C23.4784 6.44 23.6784 6.72 24.1984 6.72H25.6384C25.3184 7.12 24.7184 7.44 24.7184 8.12L19.7984 21.52H17.8384C16.7984 21.52 16.3984 22.04 16.3984 22.6C16.3984 23.36 17.0784 24.28 17.7184 24.28H18.7584C18.4384 25.12 18.3184 26 18.3184 26.72C18.3184 29.8 20.7184 31.44 22.1184 31.76L33.2384 32.28H33.3184C34.1984 32.28 34.7584 31.6 34.7584 30.88C34.7584 30.16 34.4384 29.48 33.1184 29.32L22.8784 29.2C21.9984 29.2 21.6784 28.72 21.6784 28.12C21.6784 27.36 22.0784 26.28 22.7984 24.32H30.3984C30.8784 24.32 32.4384 23.04 32.4384 22.24C32.4384 21.84 32.0784 21.56 31.0784 21.56H23.8784L28.9984 8.44C29.2784 7.96 29.3184 7.52 29.3184 7.16V6.76L37.2384 6.72C38.3984 6.72 38.8784 6.36 38.8784 5.96C38.8784 5.24 37.4784 4.24 35.5584 4.2L25.2784 3.92ZM36.9472 30.36C36.8672 30.48 36.8672 30.68 36.8672 30.8C36.8672 31.72 38.8272 32.52 40.7872 32.52C42.1472 32.52 42.3472 32 42.6272 30.84C42.9472 23.24 47.1072 12.44 49.5072 7.24C50.0672 6.88 50.3072 6.76 50.6272 6.76C51.1472 6.76 51.2672 7.24 51.2672 8C51.2672 10.28 49.3872 15.36 48.6672 19.84C48.5472 20.52 48.5072 21.12 48.5072 22.04V22.12C48.5072 24.68 50.1072 26.6 56.6272 26.96C56.9472 26.96 57.3072 26.84 57.3472 26.72C57.4272 26.36 57.6672 25.4 57.7872 24.64C59.1872 19.16 62.0672 12.88 64.8672 7.72C65.0272 7.24 65.6672 6.84 66.1872 6.84C66.6672 6.84 67.2272 7.2 67.2272 7.92C67.2272 8.08 67.1872 8.28 67.1472 8.48C65.6672 14.76 61.0672 24.76 59.7872 31.48V31.64C59.7872 32.32 60.7472 32.56 62.1072 32.84C62.7472 33 63.4272 33.12 63.9472 33.12C64.7072 33.12 65.1472 32.92 65.3472 32.28C65.7072 30.92 65.3072 30.56 65.9872 28.84C68.0672 22.28 71.0672 13.96 71.3872 7.68V7.6C71.3872 6 68.6672 4.28 67.0672 3.96C66.5472 3.88 65.8272 3.84 65.2672 3.84C63.6672 3.84 62.0272 4.24 61.2672 5.56C59.2272 9 55.2272 16.44 53.8272 21.28C53.7072 20.68 53.6272 20.04 53.6272 19.4C53.6272 15.68 55.2672 11.44 55.2672 8.4C55.2672 7.12 54.9872 6.04 54.1872 5.32C52.6672 4 51.2672 3.52 50.0272 3.52C48.7472 3.52 47.6272 4 46.5872 4.36C42.5472 13.04 38.8272 22.76 36.9472 30.36ZM81.3262 24.88C79.9262 24.88 79.4062 25.2 79.4062 25.68C79.4062 26.32 80.3662 27.16 81.3262 27.56C81.5663 29.56 82.4063 31.76 83.3263 31.76C83.7663 31.76 84.2463 31.24 84.6863 29.92L85.6463 27.56L92.0463 27.2L91.6862 28.56C91.6463 28.68 91.6063 28.84 91.6063 29C91.6063 30.4 93.3263 32.52 94.3663 32.52C94.6863 32.52 94.9263 32.32 95.0463 31.92L102.446 10.16C102.486 10.08 102.486 9.96 102.486 9.84C102.486 8.36 100.846 4.12 98.0863 4.12H88.0063C87.5263 4.12 87.2862 4.8 87.2862 5.48C87.2862 6.16 87.5263 6.8 88.0063 6.8H88.7263C88.7263 6.8 88.4063 6.8 88.4063 7.12L81.6863 24.52L81.3262 24.88ZM86.7263 24.52L92.3663 8.16C92.3663 7.48 92.3663 7.12 92.0463 6.8L97.0463 6.48C98.4463 6.48 99.1663 7.88 99.1663 8.92C99.1663 9.12 99.1263 9.32 99.0863 9.48L93.0463 24.52H86.7263ZM111.324 6.92C113.084 5.84 114.724 4.64 116.124 3.48C116.804 2.92 116.924 3.08 116.924 2.12C116.924 1.92 116.924 1.72 116.884 1.56C116.644 0.559999 116.084 -4.76837e-07 115.484 -4.76837e-07C115.244 -4.76837e-07 114.764 0.159997 114.444 0.439999C112.324 2.2 111.204 3.28 109.444 4.72C108.844 5.16 108.804 5.64 108.804 6C108.804 6.48 109.084 7.36 110.044 7.36C110.484 7.36 110.884 7.32 111.324 6.92ZM107.084 10.24C104.324 15.72 101.884 22.24 101.564 28.4C101.524 28.8 101.484 29.16 101.484 29.48C101.484 31.36 102.164 32.12 103.004 32.12C104.284 32.12 105.924 30.48 106.324 28.72C107.044 22.92 108.924 17.08 110.684 10.92C110.884 10.36 110.964 9.88 110.964 9.52C110.964 8.76 110.404 8.48 109.884 8.48C108.924 8.48 107.444 9.44 107.084 10.24Z" fill="#FFFFFF"/>
</svg>
