<svg width="127" height="123" viewBox="0 0 127 123" fill="none" xmlns="http://www.w3.org/2000/svg">
<path d="M107.533 3.72839H105.2C95.0283 3.72839 86.588 12.1688 86.588 22.5632V23.4696H84.0246V3.72839H65.4128V20.832C65.4128 31.6797 74.2321 40.5732 85.0797 40.5732H85.4586C96.3806 40.5732 105.2 31.6797 105.2 20.832H107.837V43.1365H60.9623C50.7239 43.1365 42.4247 51.4357 42.4247 61.6741V102.932H39.7871V86.0516C39.7871 75.0479 30.8935 66.1618 19.8898 66.1618C8.88616 66.1618 0 75.0553 0 86.0516V122.674H18.6119V83.2654H21.1752V102.784C21.1752 113.787 30.0688 122.674 41.0725 122.674C52.0761 122.674 60.9623 113.78 60.9623 102.784V60.2476H109.338C118.759 60.2476 126.368 52.6394 126.368 43.2183V22.4963C126.368 12.1762 117.927 3.73583 107.525 3.73583L107.533 3.72839Z" fill="white"/>
<path d="M18.6119 40.4846H42.5733C43.7992 40.4846 50.3152 40.3731 55.583 35.1202C56.3111 34.3921 60.9623 29.5998 60.9623 22.1773C60.9623 15.3567 57.0318 10.7427 55.583 9.09328C48.2869 0.786661 36.8151 0.355733 28.4788 0.0436779C23.1144 -0.156929 14.6443 0.214567 4.61398 3.71405C0.847024 5.58638 0 8.4989 0 12.8454V20.8176H20.93H41.8303H42.4247V23.3735H17.1036C7.68252 23.3735 0 31.0635 0 40.4772V60.2184H18.6119V40.4772V40.4846ZM9.14619 15.5053C6.97667 15.5053 5.2158 13.7295 5.2158 11.5303C5.2158 9.33104 6.97667 7.533 9.14619 7.533C11.3157 7.533 13.0692 9.32361 13.0692 11.5303C13.0692 13.737 11.3009 15.5053 9.14619 15.5053Z" fill="white"/>
<path d="M97.5244 84.0906V73.5401C97.5244 69.0822 101.158 65.449 105.616 65.449H118.276C122.734 65.449 126.367 69.0896 126.367 73.5401V84.0906C126.367 88.5485 122.021 92.1817 117.563 92.1817H105.616C101.158 92.1817 97.5244 88.5411 97.5244 84.0906ZM117.563 84.0906V73.5401H106.329V84.0906H117.563Z" fill="white"/>
<path d="M66.1031 122.652V113.914C66.1031 109.137 70.3828 105.251 75.6208 105.251C80.1828 105.251 84.0018 108.171 84.9231 112.094H86.1341V104.003H66.0957V95.9114H86.8474C91.3053 95.9114 94.9386 99.552 94.9386 104.003V105.251C94.9386 109.709 91.3053 113.342 86.8474 113.342H74.9744V114.553H94.9386V122.644H66.0957L66.1031 122.652Z" fill="white"/>
<path d="M97.525 114.568H117.586V113.357H111.59C109.376 113.357 107.555 111.536 107.555 109.285C107.555 107.034 109.376 105.251 111.59 105.251H117.586V104.002H97.525V95.8964H126.368V102.464C126.368 105.927 123.337 108.676 119.867 108.676H116.33V109.887H120.008C123.507 109.887 126.36 112.74 126.36 116.277C126.36 119.813 123.507 122.666 120.008 122.666H97.5176V114.56L97.525 114.568Z" fill="white"/>
<path d="M66.111 92.1816V83.444C66.111 78.6666 70.3906 74.7808 75.6286 74.7808C80.1906 74.7808 84.0096 77.7007 84.9309 81.6237H86.142V73.5326H66.1035V65.4414H86.8552C91.3131 65.4414 94.9464 69.0821 94.9464 73.5326V74.7808C94.9464 79.2387 91.3131 82.8719 86.8552 82.8719H74.9822V84.083H94.9464V92.1741H66.1035L66.111 92.1816Z" fill="white"/>
</svg>
