<svg width="300" height="102" viewBox="0 0 300 102" fill="none" xmlns="http://www.w3.org/2000/svg">
<g clip-path="url(#clip0_394_2084)">
<path d="M100.368 16.4081V2.91211H148.533V16.4127H131.804V47.5114H117.096V16.4081H100.368Z" fill="white"/>
<path d="M150.559 2.93994H165.248V18.4406H167.269C167.269 9.88933 174.226 2.93994 182.848 2.93994H183.145C191.706 2.93994 198.724 9.88933 198.724 18.4406V47.4836H167.269V34.0015H184.039V16.422H181.958V18.4406C181.958 25.9271 175.895 31.9227 168.46 31.9227H165.248V47.4836H150.559V2.93994Z" fill="white"/>
<path d="M200.745 34.0109V16.4082C200.745 8.97731 206.817 2.90759 214.261 2.90759H235.393C242.838 2.90759 248.91 8.97268 248.91 16.4082V34.0109C248.91 41.4418 241.646 47.5115 234.202 47.5115H214.257C206.812 47.5115 200.74 41.4464 200.74 34.0109H200.745ZM234.202 34.0109V16.4082H215.448V34.0109H234.202Z" fill="white"/>
<path d="M266.649 2.91222C275.34 2.91222 282.367 9.92643 282.367 18.612V31.9321H284.453V2.91222H299.096V31.8163C299.096 40.4973 292.074 47.5161 283.378 47.5161C274.682 47.5161 267.66 40.5019 267.66 31.8163V16.4128H265.634V47.5115H250.926V18.6074C250.926 9.92643 257.949 2.90759 266.645 2.90759L266.649 2.91222Z" fill="white"/>
<path d="M43.9146 7.17626C38.153 0.620407 29.091 0.282429 22.5043 0.0324179C18.263 -0.124997 11.5697 0.171313 3.64797 2.9307C0.672116 4.40762 0 6.70402 0 10.1347V16.4313H16.534H33.0495H33.5177V18.4499H13.5165C6.07222 18.4499 0 24.515 0 31.9459V47.5253H14.7077V31.9459H33.6382C34.607 31.9459 39.7568 31.8579 43.9146 27.7096C44.4941 27.1355 48.1652 23.3483 48.1652 17.4962C48.1652 12.1117 45.0596 8.47262 43.9146 7.17163V7.17626ZM7.2264 12.232C5.51135 12.232 4.1254 10.8292 4.1254 9.09301C4.1254 7.35682 5.51598 5.93546 7.2264 5.93546C8.93682 5.93546 10.3274 7.35219 10.3274 9.09301C10.3274 10.8338 8.93219 12.232 7.2264 12.232Z" fill="white"/>
<path d="M50.1862 85.578V67.9753C50.1862 60.5398 56.2584 54.4747 63.7027 54.4747H84.8395C92.2838 54.4747 98.356 60.5398 98.356 67.9753V85.578C98.356 93.0089 91.0925 99.074 83.6529 99.074H63.7073C56.263 99.074 50.1908 93.0089 50.1908 85.578H50.1862ZM83.6483 85.578V67.9753H64.8939V85.578H83.6483Z" fill="white"/>
<path d="M100.372 83.4899C100.372 76.059 106.445 69.9939 113.889 69.9939H131.809V67.9707H100.372V54.4701H134.011C142.048 54.4701 148.538 60.9519 148.538 68.98C148.538 77.0082 142.048 83.4899 134.011 83.4899H131.809V85.5734H148.538V99.0693H130.618C123.178 99.0693 117.101 93.0042 117.101 85.5734V83.4899H115.075V99.0693H100.368V83.4899H100.372Z" fill="white"/>
<path d="M150.559 67.9846V54.484H198.724V67.9846H181.995V99.0833H167.287V67.9846H150.559Z" fill="white"/>
<path d="M232.181 85.5594V83.4806H234.383C242.421 83.4806 248.91 76.9989 248.91 68.9707C248.91 60.9426 242.421 54.4608 234.383 54.4608H214.261C206.817 54.4608 200.745 60.4657 200.745 67.9614V85.5641C200.745 90.7449 203.697 95.2543 208.008 97.5137C213.617 101.481 220.894 101.764 226.429 101.963C230.665 102.116 237.35 101.819 245.262 99.0601C245.267 99.0601 245.276 99.0601 245.28 99.0554C248.117 97.6433 248.85 95.4766 248.905 92.3051V85.5641H232.177L232.181 85.5594ZM215.392 67.9614H234.267V69.9847H230.99C223.55 69.9847 217.473 76.0498 217.473 83.4806V85.5641H215.388V67.9614H215.392ZM241.697 89.7541C243.412 89.7541 244.803 91.1523 244.803 92.8885C244.803 94.6293 243.417 96.046 241.702 96.046C239.996 96.046 238.596 94.6339 238.596 92.8931C238.596 91.1569 239.987 89.7541 241.697 89.7541Z" fill="white"/>
<path d="M83.4582 2.91211H81.6134C73.5758 2.91211 66.9056 9.57445 66.9056 17.7785V18.4962H64.88V2.91211H50.1723V16.4127C50.1723 24.9733 57.1391 31.9921 65.7097 31.9921H66.0064C74.6373 31.9921 81.6041 24.9733 81.6041 16.4127H83.69V34.0154H48.1559C40.0674 34.0154 33.5131 40.5666 33.5131 48.641V54.47V83.4898H31.4272V70.1698C31.4272 61.4888 24.4048 54.47 15.709 54.47C7.01318 54.47 0 61.4842 0 70.1652V99.0693H14.7077V67.9706H16.7334V83.3741C16.7334 92.0551 23.7558 99.0739 32.4516 99.0739C41.1474 99.0739 48.1698 92.0597 48.1698 83.3741V54.47V47.5114H84.8952C92.3348 47.5114 98.3514 41.5065 98.3514 34.0709V17.7183C98.3514 9.57445 91.6812 2.91211 83.4675 2.91211H83.4582Z" fill="white"/>
<path d="M277.482 69.9708V61.7436C277.482 58.2666 280.319 55.4331 283.8 55.4331H293.682C297.163 55.4331 300 58.2712 300 61.7436V69.9708C300 73.4432 296.602 76.2813 293.126 76.2813H283.8C280.319 76.2813 277.482 73.4432 277.482 69.9708ZM293.126 69.9708V61.7436H284.356V69.9708H293.126Z" fill="#1C1B1F"/>
<path d="M252.957 100.042V93.231C252.957 89.5086 256.299 86.4761 260.387 86.4761C263.951 86.4761 266.927 88.754 267.65 91.8143H268.596V85.5038H252.952V79.1934H269.152C272.633 79.1934 275.47 82.0314 275.47 85.5038V86.4761C275.47 89.9531 272.633 92.7866 269.152 92.7866H259.882V93.7311H275.47V100.042H252.952H252.957Z" fill="#1C1B1F"/>
<path d="M277.482 93.7358H293.144V92.7867H288.463C286.734 92.7867 285.315 91.3653 285.315 89.6152C285.315 87.8651 286.738 86.4716 288.463 86.4716H293.144V85.4993H277.482V79.1796H300V84.3002C300 86.9994 297.631 89.143 294.929 89.143H292.171V90.0875H295.04C297.77 90.0875 300 92.3144 300 95.0692C300 97.8239 297.77 100.051 295.04 100.051H277.482V93.7311V93.7358Z" fill="#1C1B1F"/>
<path d="M252.957 76.2813V69.4708C252.957 65.7484 256.299 62.7158 260.387 62.7158C263.951 62.7158 266.927 64.9937 267.65 68.054H268.596V61.7436H252.952V55.4331H269.152C272.633 55.4331 275.47 58.2712 275.47 61.7436V62.7158C275.47 66.1929 272.633 69.0263 269.152 69.0263H259.882V69.9708H275.47V76.2813H252.952H252.957Z" fill="#1C1B1F"/>
</g>
<defs>
<clipPath id="clip0_394_2084">
<rect width="300" height="102" fill="white"/>
</clipPath>
</defs>
</svg>
