<svg width="160" height="55" viewBox="0 0 160 55" fill="none" xmlns="http://www.w3.org/2000/svg">
<path d="M53.689 8.78676V1.55811H79.456V8.78676H70.5078V25.4418H62.6404V8.78676H53.6922H53.689Z" fill="white"/>
<path d="M80.5398 1.57104H88.3973V9.87074H89.4782C89.4782 5.29182 93.199 1.57104 97.8106 1.57104H97.9711C102.55 1.57104 106.307 5.29182 106.307 9.87074V25.4253H89.4782V18.2032H98.4493V8.78988H97.3357V9.87074C97.3357 13.8797 94.0931 17.0928 90.1136 17.0928H88.3973V25.4286H80.5398V1.57104Z" fill="white"/>
<path d="M107.388 18.2132V8.78676C107.388 4.80724 110.637 1.55811 114.617 1.55811H125.923C129.906 1.55811 133.152 4.80724 133.152 8.78676V18.2132C133.152 22.1927 129.267 25.4418 125.285 25.4418H114.617C110.634 25.4418 107.388 22.1927 107.388 18.2132ZM125.288 18.2132V8.78676H115.256V18.2132H125.288Z" fill="white"/>
<path d="M142.644 1.55811C147.295 1.55811 151.052 5.31491 151.052 9.96588V17.0996H152.165V1.55811H160V17.0373C160 21.6883 156.243 25.4451 151.592 25.4451C146.941 25.4451 143.184 21.6883 143.184 17.0373V8.78676H142.1V25.4418H134.233V9.96588C134.233 5.31491 137.99 1.55811 142.641 1.55811H142.644Z" fill="white"/>
<path d="M23.494 3.8409C20.4086 0.329743 15.5611 0.149599 12.0368 0.0185862C9.76704 -0.0665725 6.1871 0.0906435 1.94882 1.56782C0.360287 2.36045 0 3.5887 0 5.42616V8.79648H8.84667H17.6802H17.9324V9.87734H7.22866C3.24913 9.88061 0 13.1297 0 17.1093V25.4548H7.86735V17.1093H17.9947C18.5122 17.1093 21.2667 17.0634 23.494 14.8395C23.8018 14.5316 25.767 12.5042 25.767 9.36966C25.767 6.48737 24.1064 4.53855 23.494 3.8409ZM3.86489 6.5496C2.9478 6.5496 2.2043 5.79955 2.2043 4.86935C2.2043 3.93916 2.9478 3.17928 3.86489 3.17928C4.78199 3.17928 5.52549 3.93916 5.52549 4.86935C5.52549 5.79955 4.77871 6.5496 3.86489 6.5496Z" fill="white"/>
<path d="M26.8478 45.8307V36.4043C26.8478 32.4215 30.0969 29.1724 34.0764 29.1724H45.3829C49.3657 29.1724 52.6115 32.4215 52.6115 36.4043V45.8307C52.6115 49.8102 48.727 53.0594 44.7442 53.0594H34.0731C30.0903 53.0594 26.8445 49.8102 26.8445 45.8307H26.8478ZM44.7474 45.8307V36.4043H34.7151V45.8307H44.7474Z" fill="white"/>
<path d="M53.6954 44.7134C53.6954 40.7339 56.9445 37.4848 60.9241 37.4848H70.511V36.4006H53.6954V29.1687H71.6901C75.9906 29.1687 79.4625 32.6406 79.4625 36.9411C79.4625 41.2416 75.9906 44.7102 71.6901 44.7102H70.511V45.827H79.4592V53.0557H69.8723C65.8928 53.0557 62.6436 49.8066 62.6436 45.827V44.7102H61.5595V53.0557H53.6921V44.7102L53.6954 44.7134Z" fill="white"/>
<path d="M80.5398 36.4109V29.179H106.307V36.4109H97.3586V53.0692H89.4913V36.4109H80.5431H80.5398Z" fill="white"/>
<path d="M124.204 45.8238V44.7102H125.383C129.683 44.7102 133.155 41.2383 133.155 36.9411C133.155 32.6438 129.683 29.1687 125.383 29.1687H114.617C110.634 29.1687 107.388 32.3851 107.388 36.4006V45.827C107.388 48.6012 108.97 51.0152 111.273 52.227C114.273 54.3527 118.167 54.5034 121.128 54.6115C123.395 54.6934 126.971 54.5329 131.203 53.0557C131.206 53.0557 131.21 53.0557 131.213 53.0524C132.729 52.2958 133.122 51.1364 133.152 49.4365V45.827H124.204V45.8238ZM115.223 36.3974H125.321V37.4815H123.568C119.589 37.4815 116.34 40.7306 116.34 44.7102V45.827H115.226V36.4006L115.223 36.3974ZM129.294 48.0706C130.211 48.0706 130.954 48.8207 130.954 49.7509C130.954 50.6844 130.214 51.441 129.297 51.4442C128.383 51.4442 127.636 50.6876 127.636 49.7542C127.636 48.824 128.38 48.0739 129.294 48.0739V48.0706Z" fill="white"/>
<path d="M44.6461 1.55811H43.6602C39.3597 1.55811 35.7928 5.12494 35.7928 9.52044V9.90365H34.7087V1.55811H26.8414V8.78676C26.8414 13.3722 30.5687 17.1323 35.1541 17.1323H35.3146C39.9329 17.1323 43.6569 13.3722 43.6569 8.78676H44.7705V18.2132H25.7605C21.4338 18.2132 17.9259 21.7211 17.9259 26.0478V29.1692V44.7106H16.809V37.5769C16.809 32.926 13.0522 29.1692 8.40123 29.1692C3.75026 29.1692 0 32.9292 0 37.5769V53.0562H7.86735V36.4011H8.95148V44.6517C8.95148 49.3026 12.7083 53.0594 17.3593 53.0594C22.0102 53.0594 25.767 49.3026 25.767 44.6517V29.1724V25.4451H45.4125C49.392 25.4451 52.6084 22.2287 52.6084 18.2459V9.48769C52.6084 5.12494 49.0416 1.55811 44.6461 1.55811Z" fill="white"/>
<path d="M148.111 37.279V32.9818C148.111 31.1672 149.591 29.6868 151.406 29.6868H156.558C158.372 29.6868 159.853 31.1672 159.853 32.9818V37.279C159.853 39.0935 158.081 40.574 156.266 40.574H151.402C149.588 40.574 148.107 39.0935 148.107 37.279H148.111ZM156.27 37.279V32.9818H151.697V37.279H156.27Z" fill="white"/>
<path d="M135.32 52.9805V49.4235C135.32 47.4779 137.063 45.8959 139.195 45.8959C141.052 45.8959 142.608 47.0849 142.985 48.6832H143.479V45.3882H135.32V42.0933H143.771C145.585 42.0933 147.066 43.5737 147.066 45.3882V45.8959C147.066 47.7105 145.585 49.1909 143.771 49.1909H138.936V49.6855H147.066V52.9805H135.32Z" fill="white"/>
<path d="M148.11 49.6891H156.279V49.1945H153.835C152.935 49.1945 152.194 48.4543 152.194 47.5372C152.194 46.6201 152.935 45.8963 153.835 45.8963H156.279V45.3886H148.11V42.0903H159.855V44.7663C159.855 46.1747 158.621 47.2948 157.209 47.2948H155.771V47.7894H157.268C158.693 47.7894 159.855 48.9522 159.855 50.39C159.855 51.8279 158.693 52.9906 157.268 52.9906H148.11V49.6924V49.6891Z" fill="white"/>
<path d="M135.32 40.574V37.017C135.32 35.0714 137.063 33.4894 139.195 33.4894C141.052 33.4894 142.608 34.6784 142.985 36.2767H143.479V32.9818H135.32V29.6868H143.771C145.585 29.6868 147.066 31.1672 147.066 32.9818V33.4894C147.066 35.304 145.585 36.7844 143.771 36.7844H138.936V37.279H147.066V40.574H135.32Z" fill="white"/>
</svg>
